<?xml version="1.0" encoding="UTF-8"?><svg id="Layer_1" xmlns="http://www.w3.org/2000/svg" xmlns:xlink="http://www.w3.org/1999/xlink" viewBox="0 0 256 256"><defs><style>.cls-1{fill:#fff;}.cls-2{fill:#041742;}.cls-3{fill:url(#radial-gradient);}.cls-4{fill:url(#radial-gradient-2);}</style><radialGradient id="radial-gradient" cx="217.26" cy="935.91" fx="217.26" fy="935.91" r="184.67" gradientTransform="translate(0 -872)" gradientUnits="userSpaceOnUse"><stop offset=".1" stop-color="#26db8d"/><stop offset=".26" stop-color="#23d29a"/><stop offset=".56" stop-color="#1abbbb"/><stop offset=".89" stop-color="#0e9de5"/></radialGradient><radialGradient id="radial-gradient-2" cx="217.26" cy="935.91" fx="217.26" fy="935.91" r="184.67" gradientTransform="translate(0 -872)" gradientUnits="userSpaceOnUse"><stop offset=".1" stop-color="#26db8d"/><stop offset=".26" stop-color="#23d29a"/><stop offset=".56" stop-color="#1abbbb"/><stop offset=".89" stop-color="#0e9de5"/></radialGradient></defs><rect class="cls-2" x="0" y="0" width="256" height="256" rx="39.12" ry="39.12"/><path class="cls-3" d="m217.17,64.05h0l-17.88,27.84c5.57,10.8,8.61,23.12,8.61,36.11,0,44.21-35.77,79.81-79.81,79.81-12.99,0-25.14-3.04-35.94-8.61l-28.01,18.05c18.05,12.82,39.99,20.58,63.78,20.58,60.57,0,109.84-49.1,109.84-109.84,0-23.96-7.59-45.89-20.58-63.95Z"/><path class="cls-4" d="m128.08,182.84c27,0,49.44-19.4,54.16-45.05-8.61-1.86-17.38-2.87-26.49-2.87-27.33,0-52.81,8.77-73.4,23.62,9.79,14.68,26.66,24.3,45.72,24.3Z"/><path class="cls-1" d="m155.25,124.96c9.62,0,18.9,1.01,28.01,3.04h0c0-30.37-24.63-55.17-55.17-55.17s-55.17,24.63-55.17,55.17c0,2.53.17,4.89.51,7.42h0c-13.84,10.63-20.42,18.9-20.75,19.23-2.87-8.27-4.56-17.21-4.56-26.49,0-44.21,35.77-79.81,79.81-79.81,12.99,0,25.14,3.04,35.94,8.61l27.84-18.05c-17.88-13.16-39.82-20.75-63.61-20.75-60.57,0-109.84,49.1-109.84,109.84,0,24.47,7.93,46.91,21.43,65.13,5.23-9.45,11.47-18.05,18.73-25.82,0,0,10.8-11.3,19.07-17.04,21.93-16.03,48.76-25.31,77.78-25.31Z"/></svg>