<svg width="238" height="28" viewBox="0 0 238 28" fill="none" xmlns="http://www.w3.org/2000/svg">
<g clip-path="url(#clip0_615_5460)">
<path d="M10.6055 12.3698H3.45015V4.69995H0V23.3003H3.45015V15.5578H10.6055V23.3003H14.0562V4.69995H10.6055V12.3698Z" fill="#041742"/>
<path d="M67.4781 15.3301C68.4678 14.2384 69.0125 12.6918 69.0125 10.9752C69.0125 9.21828 68.4817 7.70384 67.4812 6.59951C66.7175 5.73268 65.2802 4.69971 62.7668 4.69971H57.1257V23.3001H60.5765V17.2268H62.1457L66.6664 23.3001H70.6392L65.6716 16.6373C66.5275 16.2582 67.1183 15.7307 67.4781 15.3302L67.4781 15.3301ZM65.8281 10.9752C65.8281 11.945 65.5889 12.6924 65.1111 13.2048C64.608 13.7747 63.819 14.0635 62.7668 14.0635H60.5765V7.88709H62.7668C63.8329 7.88709 64.6219 8.16826 65.1174 8.72798C65.5889 9.23407 65.8281 9.98964 65.8281 10.9752Z" fill="#041742"/>
<path d="M81.6837 4.69995H78.2329V23.3003H81.6837V4.69995Z" fill="#041742"/>
<path d="M91.7245 4.69995V8.15329H98.6766L90.0903 23.3003H104.83V19.8463H96.2445L104.83 4.69995H91.7245Z" fill="#041742"/>
<path d="M113.025 23.3003H124.429V20.1129H116.476V15.1945H123.027V12.0072H116.476V7.86329H124.429V4.69995H113.025V23.3003Z" fill="#041742"/>
<path d="M143.971 16.3532L135.236 4.69995H132.706V23.3003H136.157V11.6217L144.936 23.3003H147.446V4.69995H143.971V16.3532Z" fill="#041742"/>
<path d="M46.8811 5.85254L46.8802 5.85489L44.5924 9.40119C45.2923 10.7831 45.6892 12.3448 45.6892 14.0001C45.6892 19.627 41.1319 24.1886 35.5101 24.1886C33.8585 24.1886 32.3001 23.7924 30.9208 23.0936L27.3767 25.3863C29.669 27.0297 32.4755 28.0002 35.5101 28.0002C43.235 28.0002 49.4973 21.7322 49.4973 14.0002C49.4973 10.9598 48.5259 8.14816 46.8811 5.85259L46.8811 5.85254Z" fill="url(#paint0_radial_615_5460)"/>
<path d="M35.5102 21.011C38.9537 21.011 41.8165 18.5305 42.4175 15.2578C41.3276 15.0245 40.1979 14.8989 39.0385 14.8989C35.5474 14.8989 32.3189 16.0158 29.6824 17.9069C30.9445 19.7794 33.0836 21.0109 35.5102 21.0109V21.011Z" fill="url(#paint1_radial_615_5460)"/>
<path d="M38.9728 13.6204C40.1956 13.6204 41.3867 13.7543 42.5354 14.0025C42.5354 14.0016 42.5354 14.0008 42.5354 14C42.5354 10.1164 39.39 6.96827 35.5102 6.96827C31.6303 6.96827 28.4849 10.1165 28.4849 14C28.4849 14.3191 28.5087 14.6323 28.55 14.94C28.5493 14.9405 28.5487 14.9409 28.5479 14.9415C26.7788 16.2863 25.9399 17.352 25.9132 17.3861C25.5388 16.3265 25.3311 15.1882 25.3311 14C25.3311 8.37306 29.8884 3.81152 35.5102 3.81152C37.1564 3.81152 38.7099 4.20509 40.0859 4.8996L43.6322 2.60565C41.342 0.967257 38.5398 0 35.5102 0C27.7854 0 21.5232 6.26801 21.5232 14C21.5232 17.1121 22.5393 19.9854 24.2558 22.3093C24.9188 21.1112 25.7237 20.0033 26.6476 19.0069C26.6476 19.0069 28.0272 17.566 29.0842 16.8415C31.8599 14.8175 35.2759 13.6204 38.9729 13.6204H38.9728Z" fill="#041742"/>
<path d="M150.349 7.0973V4.99214H149.596V4.60767H151.538V4.99214H150.785V7.0973H150.349H150.349Z" fill="#041742"/>
<path d="M154.057 7.0973V5.24973L153.292 7.0973H153.106L152.345 5.24973V7.0973H151.909V4.60767H152.524L153.199 6.24627L153.878 4.60767H154.493V7.0973H154.057H154.057Z" fill="#041742"/>
<path d="M166.221 4.54541H164.495V23.238H166.221V4.54541Z" fill="url(#paint2_linear_615_5460)"/>
<path d="M180.243 23.1636H193.038V20.0747H183.712V15.2576H192.845V12.1685H183.712V7.68093H193.038V4.59204H180.243V23.1636Z" fill="#041742"/>
<path d="M207.147 4.29004C201.652 4.29004 197.663 8.32804 197.663 13.8916C197.663 19.4552 201.652 23.4929 207.147 23.4929C212.642 23.4929 216.629 19.4549 216.629 13.8916C216.629 8.3283 212.641 4.29004 207.147 4.29004ZM213.077 13.8916C213.077 17.7101 210.638 20.377 207.147 20.377C203.655 20.377 201.216 17.7101 201.216 13.8916C201.216 10.0731 203.655 7.40648 207.147 7.40648C210.639 7.40648 213.077 10.0734 213.077 13.8916Z" fill="#041742"/>
<path d="M234.53 4.59204V17.3024L225.414 4.64641L225.375 4.59204H221.887V23.1636H225.356V10.0984L234.664 23.1088L234.703 23.1636H238V4.59204H234.53Z" fill="#041742"/>
</g>
<defs>
<radialGradient id="paint0_radial_615_5460" cx="0" cy="0" r="1" gradientUnits="userSpaceOnUse" gradientTransform="translate(46.883 5.83581) scale(23.5322 23.5539)">
<stop offset="0.0986" stop-color="#26DB8D"/>
<stop offset="0.2628" stop-color="#22D299"/>
<stop offset="0.5637" stop-color="#19BABA"/>
<stop offset="0.886" stop-color="#0E9DE5"/>
</radialGradient>
<radialGradient id="paint1_radial_615_5460" cx="0" cy="0" r="1" gradientUnits="userSpaceOnUse" gradientTransform="translate(46.8831 5.83564) scale(23.5322 23.5539)">
<stop offset="0.0986" stop-color="#26DB8D"/>
<stop offset="0.2628" stop-color="#22D299"/>
<stop offset="0.5637" stop-color="#19BABA"/>
<stop offset="0.886" stop-color="#0E9DE5"/>
</radialGradient>
<linearGradient id="paint2_linear_615_5460" x1="165.358" y1="5.37083" x2="165.358" y2="20.8229" gradientUnits="userSpaceOnUse">
<stop offset="0.0982" stop-color="#26DB8D"/>
<stop offset="0.2625" stop-color="#22D299"/>
<stop offset="0.5635" stop-color="#19BABA"/>
<stop offset="0.886" stop-color="#0E9DE5"/>
</linearGradient>
<clipPath id="clip0_615_5460">
<rect width="238" height="28" fill="white"/>
</clipPath>
</defs>
</svg>
