<svg width="194" height="22" viewBox="0 0 194 22" fill="none" xmlns="http://www.w3.org/2000/svg">
<path d="M8.34278 9.71893H2.71404V3.69263H0V18.3072H2.71404V12.2238H8.34278V18.3072H11.0574V3.69263H8.34278V9.71893Z" fill="white"/>
<path d="M53.082 12.045C53.8606 11.1873 54.289 9.97209 54.289 8.62337C54.289 7.24286 53.8715 6.05299 53.0844 5.18533C52.4836 4.50429 51.353 3.69263 49.3758 3.69263H44.9382V18.3072H47.6528V13.5353H48.8872L52.4434 18.3072H55.5686L51.6609 13.0721C52.3342 12.7743 52.7989 12.3598 53.082 12.045V12.045ZM51.784 8.62337C51.784 9.38537 51.5958 9.97259 51.22 10.3752C50.8242 10.8229 50.2035 11.0498 49.3758 11.0498H47.6528V6.19704H49.3758C50.2145 6.19704 50.8351 6.41797 51.2249 6.85776C51.5958 7.2554 51.784 7.84908 51.784 8.62343V8.62337Z" fill="white"/>
<path d="M64.2568 3.69263H61.5422V18.3072H64.2568V3.69263Z" fill="white"/>
<path d="M72.1554 3.69263V6.40599H77.6242L70.8699 18.3072H82.465V15.5933H75.7111L82.465 3.69263H72.1554Z" fill="white"/>
<path d="M88.9116 18.3072H97.8826V15.8029H91.6262V11.9384H96.7792V9.43403H91.6262V6.1781H97.8826V3.69263H88.9116V18.3072Z" fill="white"/>
<path d="M113.255 12.8487L106.384 3.69263H104.394V18.3072H107.108V9.1312L114.015 18.3072H115.989V3.69263H113.255V12.8487Z" fill="white"/>
<path d="M36.8791 4.59814L36.8784 4.59996L35.0787 7.38632C35.6293 8.47215 35.9415 9.69915 35.9415 10.9998C35.9415 15.4209 32.3564 19.005 27.934 19.005C26.6348 19.005 25.4089 18.6937 24.3239 18.1446L21.5359 19.946C23.3391 21.2372 25.5469 21.9998 27.934 21.9998C34.0108 21.9998 38.937 17.0749 38.937 10.9998C38.937 8.61093 38.1729 6.40176 36.8791 4.59814V4.59814Z" fill="url(#paint0_radial_145_98)"/>
<path d="M27.9341 16.5086C30.643 16.5086 32.895 14.5597 33.3677 11.9882C32.5104 11.8049 31.6217 11.7063 30.7096 11.7063C27.9634 11.7063 25.4236 12.5838 23.3496 14.0697C24.3425 15.541 26.0253 16.5086 27.9341 16.5086V16.5086Z" fill="url(#paint1_radial_145_98)"/>
<path d="M30.6581 10.7017C31.62 10.7017 32.557 10.8069 33.4606 11.0019C33.4606 11.0013 33.4606 11.0006 33.4606 10.9999C33.4606 7.94857 30.9863 5.47501 27.9341 5.47501C24.882 5.47501 22.4077 7.94863 22.4077 10.9999C22.4077 11.2507 22.4264 11.4967 22.4589 11.7385C22.4583 11.7389 22.4578 11.7392 22.4573 11.7397C21.0656 12.7963 20.4056 13.6336 20.3847 13.6604C20.0901 12.8279 19.9268 11.9335 19.9268 10.9999C19.9268 6.57878 23.5118 2.99474 27.9341 2.99474C29.2292 2.99474 30.4513 3.30397 31.5336 3.84968L34.3233 2.04731C32.5218 0.75999 30.3174 0 27.9341 0C21.8574 0 16.9312 4.92485 16.9312 11C16.9312 13.4452 17.7304 15.7029 19.0808 17.5287C19.6023 16.5873 20.2355 15.7168 20.9623 14.934C20.9623 14.934 22.0475 13.8018 22.8791 13.2326C25.0626 11.6423 27.7499 10.7017 30.658 10.7017H30.6581Z" fill="white"/>
<path d="M123.388 3.69287H122.5V18.3074H123.388V3.69287Z" fill="url(#paint2_linear_145_98)"/>
<path d="M135.213 18.2947H129.785V3.69416H135.213C139.766 3.69416 142.853 6.71496 142.853 11.0054C142.853 15.2958 139.766 18.2947 135.213 18.2947ZM135.213 16.04C138.387 16.04 140.226 13.7635 140.226 11.0054C140.226 8.18158 138.475 5.94881 135.213 5.94881H132.346V16.04H135.213Z" fill="white"/>
<path d="M154.213 18.5574C149.835 18.5574 146.748 15.3615 146.748 11.0054C146.748 6.64929 149.835 3.45337 154.213 3.45337C158.591 3.45337 161.677 6.64929 161.677 11.0054C161.677 15.3615 158.591 18.5574 154.213 18.5574ZM154.213 16.2808C157.146 16.2808 159.051 14.0043 159.051 11.0054C159.051 7.98457 157.146 5.72992 154.213 5.72992C151.258 5.72992 149.375 7.98457 149.375 11.0054C149.375 14.0043 151.258 16.2808 154.213 16.2808Z" fill="white"/>
<path d="M173.227 18.5574C168.915 18.5574 165.566 15.4928 165.566 11.0054C165.566 6.51795 168.915 3.45337 173.227 3.45337C176.183 3.45337 177.999 4.98566 179.094 6.73685L176.905 7.85323C176.204 6.64929 174.804 5.72992 173.227 5.72992C170.338 5.72992 168.193 7.94079 168.193 11.0054C168.193 14.07 170.338 16.2808 173.227 16.2808C174.804 16.2808 176.204 15.3833 176.905 14.1575L179.094 15.2739C177.978 17.0251 176.183 18.5574 173.227 18.5574Z" fill="white"/>
<path d="M188.214 18.5574C185.522 18.5574 183.573 17.6161 182.282 16.237L183.705 14.267C184.712 15.3396 186.288 16.2808 188.324 16.2808C190.425 16.2808 191.257 15.252 191.257 14.2889C191.257 11.2243 182.742 13.1287 182.742 7.74378C182.742 5.3359 184.865 3.47526 188.061 3.47526C190.337 3.47526 192.176 4.19762 193.533 5.51102L192.067 7.41543C190.928 6.27716 189.374 5.7518 187.842 5.7518C186.332 5.7518 185.368 6.47417 185.368 7.56866C185.368 10.283 193.862 8.59749 193.862 14.0481C193.862 16.4778 192.154 18.5574 188.214 18.5574Z" fill="white"/>
<defs>
<radialGradient id="paint0_radial_145_98" cx="0" cy="0" r="1" gradientUnits="userSpaceOnUse" gradientTransform="translate(36.8806 4.58504) scale(18.5117 18.5066)">
<stop offset="0.0986" stop-color="#26DB8D"/>
<stop offset="0.2628" stop-color="#22D299"/>
<stop offset="0.5637" stop-color="#19BABA"/>
<stop offset="0.886" stop-color="#0E9DE5"/>
</radialGradient>
<radialGradient id="paint1_radial_145_98" cx="0" cy="0" r="1" gradientUnits="userSpaceOnUse" gradientTransform="translate(36.8807 4.58514) scale(18.5117 18.5066)">
<stop offset="0.0986" stop-color="#26DB8D"/>
<stop offset="0.2628" stop-color="#22D299"/>
<stop offset="0.5637" stop-color="#19BABA"/>
<stop offset="0.886" stop-color="#0E9DE5"/>
</radialGradient>
<linearGradient id="paint2_linear_145_98" x1="122.944" y1="3.69287" x2="122.944" y2="18.3074" gradientUnits="userSpaceOnUse">
<stop offset="0.114" stop-color="#0E9DE5"/>
<stop offset="0.4363" stop-color="#19BABA"/>
<stop offset="0.7372" stop-color="#22D299"/>
<stop offset="0.9014" stop-color="#26DB8D"/>
</linearGradient>
</defs>
</svg>
